<svg width="80" height="80" viewBox="0 0 80 80" fill="none" xmlns="http://www.w3.org/2000/svg">
<g clip-path="url(#clip0_2049_147)">
<rect width="80" height="80" fill="white"/>
<rect width="80" height="80" rx="8" fill="#7EFC8A"/>
<path d="M57.5752 41.9404C55.3887 41.0347 52.9823 40.798 50.6611 41.2598C48.34 41.7215 46.2076 42.8607 44.5342 44.5342C42.8607 46.2076 41.7215 48.34 41.2598 50.6611C40.798 52.9823 41.0347 55.3887 41.9404 57.5752C42.8461 59.7616 44.3799 61.6305 46.3477 62.9453C48.3155 64.2601 50.6294 64.9619 52.9961 64.9619C56.1696 64.9618 59.213 63.701 61.457 61.457C63.701 59.213 64.9618 56.1696 64.9619 52.9961C64.9619 50.6294 64.2601 48.3155 62.9453 46.3477C61.6305 44.3799 59.7616 42.8461 57.5752 41.9404ZM28.2705 52.2012L28.1611 52.0645L23.9072 46.7354H23.9062C23.7305 46.5162 23.6088 46.2583 23.5508 45.9834C23.4928 45.7085 23.5001 45.4238 23.5723 45.1523C24.2627 42.5604 25.2935 40.0713 26.6377 37.75C26.7776 37.5082 26.9726 37.3018 27.2061 37.1484C27.3812 37.0335 27.5746 36.9503 27.7773 36.9023L27.9824 36.8662L34.7988 36.084L34.9785 36.0635L35.1035 35.9326C35.3732 35.6499 35.6546 35.3684 35.9473 35.0889L36.0781 34.9629L36.0986 34.7822L36.8555 27.9736C36.8875 27.6964 36.9838 27.4307 37.1367 27.1973C37.2896 26.9638 37.494 26.7681 37.7354 26.6279C40.0563 25.2825 42.5464 24.2515 45.1387 23.5605C45.41 23.4881 45.6949 23.4805 45.9697 23.5381C46.2444 23.5957 46.5015 23.7174 46.7207 23.8926H46.7217L52.0645 28.1611L52.2012 28.2705H53.79L53.9268 28.1611L59.2559 23.9072C59.4752 23.7319 59.7329 23.6104 60.0078 23.5527C60.214 23.5095 60.4254 23.5031 60.6328 23.5332L60.8389 23.5752C63.431 24.2634 65.9205 25.2934 68.2412 26.6377H68.2422C68.4839 26.7776 68.6895 26.9726 68.8428 27.2061C68.9959 27.4394 69.0927 27.7052 69.125 27.9824V27.9834L69.9277 34.7998L69.9492 34.9805L70.0801 35.1045C70.3639 35.3734 70.645 35.6535 70.9219 35.9453L71.0469 36.0781L71.2285 36.0986L78.0264 36.8545V36.8555C78.3036 36.8875 78.5693 36.9838 78.8027 37.1367C79.036 37.2896 79.231 37.4942 79.3711 37.7354C80.7166 40.0564 81.7485 42.5463 82.4395 45.1387C82.5119 45.41 82.5195 45.6949 82.4619 45.9697C82.4043 46.2444 82.2826 46.5015 82.1074 46.7207L77.8311 52.0645L77.7158 52.207L77.7217 52.3906C77.7329 52.7939 77.7329 53.1973 77.7217 53.6006L77.7158 53.7842L77.8301 53.9268L82.084 59.2559L82.085 59.2568C82.2606 59.4759 82.3824 59.7331 82.4404 60.0078C82.484 60.2141 82.4908 60.4261 82.4609 60.6338L82.4189 60.8389C81.7285 63.4309 80.6977 65.9199 79.3535 68.2412V68.2422C79.2137 68.4837 79.0194 68.6895 78.7861 68.8428C78.5527 68.9961 78.2862 69.0927 78.0088 69.125H78.0078L71.1914 69.9277L71.0117 69.9492L70.8867 70.0801C70.6178 70.3639 70.3377 70.645 70.0459 70.9219L69.9131 71.0469L69.8926 71.2285L69.1357 78.0283C69.1035 78.3047 69.0079 78.5699 68.8555 78.8027C68.7408 78.9778 68.5963 79.1311 68.4297 79.2559L68.2559 79.3711C65.9356 80.7177 63.4461 81.7498 60.8535 82.4395H60.8525C60.5814 82.5118 60.2971 82.5194 60.0225 82.4619C59.8162 82.4187 59.6193 82.3394 59.4414 82.2285L59.2705 82.1074L53.9277 77.8311L53.7842 77.7158L53.6006 77.7217C53.1973 77.7329 52.7939 77.7329 52.3906 77.7217L52.208 77.7158L52.0645 77.8301L46.7354 82.084V82.085C46.5162 82.2607 46.2583 82.3824 45.9834 82.4404C45.7085 82.4984 45.4238 82.4911 45.1523 82.4189C42.5603 81.7285 40.0713 80.6977 37.75 79.3535C37.5083 79.2137 37.3018 79.0196 37.1484 78.7861C36.9951 78.5527 36.8985 78.2862 36.8662 78.0088L36.0723 71.1924L36.0518 71.0127L35.9209 70.8877L35.498 70.4746C35.3575 70.3341 35.2169 70.1912 35.0771 70.0449L34.9521 69.9131L34.7715 69.8926L27.9717 69.1357H27.9707C27.6947 69.1034 27.4298 69.0077 27.1973 68.8555C27.0222 68.7408 26.8689 68.5963 26.7441 68.4297L26.6289 68.2559C25.2835 65.9349 24.2515 63.4457 23.5605 60.8535V60.8525C23.4882 60.5814 23.4806 60.2971 23.5381 60.0225C23.5813 59.8162 23.6606 59.6193 23.7715 59.4414L23.8926 59.2705L28.1611 53.9268L28.2705 53.79V52.2012Z" fill="#919090"/>
<path d="M57.5752 41.9404C55.3887 41.0347 52.9823 40.798 50.6611 41.2598C48.34 41.7215 46.2076 42.8607 44.5342 44.5342C42.8607 46.2076 41.7215 48.34 41.2598 50.6611C40.798 52.9823 41.0347 55.3887 41.9404 57.5752C42.8461 59.7616 44.3799 61.6305 46.3477 62.9453C48.3155 64.2601 50.6294 64.9619 52.9961 64.9619C56.1696 64.9618 59.213 63.701 61.457 61.457C63.701 59.213 64.9618 56.1696 64.9619 52.9961C64.9619 50.6294 64.2601 48.3155 62.9453 46.3477C61.6305 44.3799 59.7616 42.8461 57.5752 41.9404ZM28.2705 52.2012L28.1611 52.0645L23.9072 46.7354H23.9062C23.7305 46.5162 23.6088 46.2583 23.5508 45.9834C23.4928 45.7085 23.5001 45.4238 23.5723 45.1523C24.2627 42.5604 25.2935 40.0713 26.6377 37.75C26.7776 37.5082 26.9726 37.3018 27.2061 37.1484C27.3812 37.0335 27.5746 36.9503 27.7773 36.9023L27.9824 36.8662L34.7988 36.084L34.9785 36.0635L35.1035 35.9326C35.3732 35.6499 35.6546 35.3684 35.9473 35.0889L36.0781 34.9629L36.0986 34.7822L36.8555 27.9736C36.8875 27.6964 36.9838 27.4307 37.1367 27.1973C37.2896 26.9638 37.494 26.7681 37.7354 26.6279C40.0563 25.2825 42.5464 24.2515 45.1387 23.5605C45.41 23.4881 45.6949 23.4805 45.9697 23.5381C46.2444 23.5957 46.5015 23.7174 46.7207 23.8926H46.7217L52.0645 28.1611L52.2012 28.2705H53.79L53.9268 28.1611L59.2559 23.9072C59.4752 23.7319 59.7329 23.6104 60.0078 23.5527C60.214 23.5095 60.4254 23.5031 60.6328 23.5332L60.8389 23.5752C63.431 24.2634 65.9205 25.2934 68.2412 26.6377H68.2422C68.4839 26.7776 68.6895 26.9726 68.8428 27.2061C68.9959 27.4394 69.0927 27.7052 69.125 27.9824V27.9834L69.9277 34.7998L69.9492 34.9805L70.0801 35.1045C70.3639 35.3734 70.645 35.6535 70.9219 35.9453L71.0469 36.0781L71.2285 36.0986L78.0264 36.8545V36.8555C78.3036 36.8875 78.5693 36.9838 78.8027 37.1367C79.036 37.2896 79.231 37.4942 79.3711 37.7354C80.7166 40.0564 81.7485 42.5463 82.4395 45.1387C82.5119 45.41 82.5195 45.6949 82.4619 45.9697C82.4043 46.2444 82.2826 46.5015 82.1074 46.7207L77.8311 52.0645L77.7158 52.207L77.7217 52.3906C77.7329 52.7939 77.7329 53.1973 77.7217 53.6006L77.7158 53.7842L77.8301 53.9268L82.084 59.2559L82.085 59.2568C82.2606 59.4759 82.3824 59.7331 82.4404 60.0078C82.484 60.2141 82.4908 60.4261 82.4609 60.6338L82.4189 60.8389C81.7285 63.4309 80.6977 65.9199 79.3535 68.2412V68.2422C79.2137 68.4837 79.0194 68.6895 78.7861 68.8428C78.5527 68.9961 78.2862 69.0927 78.0088 69.125H78.0078L71.1914 69.9277L71.0117 69.9492L70.8867 70.0801C70.6178 70.3639 70.3377 70.645 70.0459 70.9219L69.9131 71.0469L69.8926 71.2285L69.1357 78.0283C69.1035 78.3047 69.0079 78.5699 68.8555 78.8027C68.7408 78.9778 68.5963 79.1311 68.4297 79.2559L68.2559 79.3711C65.9356 80.7177 63.4461 81.7498 60.8535 82.4395H60.8525C60.5814 82.5118 60.2971 82.5194 60.0225 82.4619C59.8162 82.4187 59.6193 82.3394 59.4414 82.2285L59.2705 82.1074L53.9277 77.8311L53.7842 77.7158L53.6006 77.7217C53.1973 77.7329 52.7939 77.7329 52.3906 77.7217L52.208 77.7158L52.0645 77.8301L46.7354 82.084V82.085C46.5162 82.2607 46.2583 82.3824 45.9834 82.4404C45.7085 82.4984 45.4238 82.4911 45.1523 82.4189C42.5603 81.7285 40.0713 80.6977 37.75 79.3535C37.5083 79.2137 37.3018 79.0196 37.1484 78.7861C36.9951 78.5527 36.8985 78.2862 36.8662 78.0088L36.0723 71.1924L36.0518 71.0127L35.9209 70.8877L35.498 70.4746C35.3575 70.3341 35.2169 70.1912 35.0771 70.0449L34.9521 69.9131L34.7715 69.8926L27.9717 69.1357H27.9707C27.6947 69.1034 27.4298 69.0077 27.1973 68.8555C27.0222 68.7408 26.8689 68.5963 26.7441 68.4297L26.6289 68.2559C25.2835 65.9349 24.2515 63.4457 23.5605 60.8535V60.8525C23.4882 60.5814 23.4806 60.2971 23.5381 60.0225C23.5813 59.8162 23.6606 59.6193 23.7715 59.4414L23.8926 59.2705L28.1611 53.9268L28.2705 53.79V52.2012Z" fill="url(#paint0_linear_2049_147)" fill-opacity="0.2"/>
<path d="M57.5752 41.9404C55.3887 41.0347 52.9823 40.798 50.6611 41.2598C48.34 41.7215 46.2076 42.8607 44.5342 44.5342C42.8607 46.2076 41.7215 48.34 41.2598 50.6611C40.798 52.9823 41.0347 55.3887 41.9404 57.5752C42.8461 59.7616 44.3799 61.6305 46.3477 62.9453C48.3155 64.2601 50.6294 64.9619 52.9961 64.9619C56.1696 64.9618 59.213 63.701 61.457 61.457C63.701 59.213 64.9618 56.1696 64.9619 52.9961C64.9619 50.6294 64.2601 48.3155 62.9453 46.3477C61.6305 44.3799 59.7616 42.8461 57.5752 41.9404ZM28.2705 52.2012L28.1611 52.0645L23.9072 46.7354H23.9062C23.7305 46.5162 23.6088 46.2583 23.5508 45.9834C23.4928 45.7085 23.5001 45.4238 23.5723 45.1523C24.2627 42.5604 25.2935 40.0713 26.6377 37.75C26.7776 37.5082 26.9726 37.3018 27.2061 37.1484C27.3812 37.0335 27.5746 36.9503 27.7773 36.9023L27.9824 36.8662L34.7988 36.084L34.9785 36.0635L35.1035 35.9326C35.3732 35.6499 35.6546 35.3684 35.9473 35.0889L36.0781 34.9629L36.0986 34.7822L36.8555 27.9736C36.8875 27.6964 36.9838 27.4307 37.1367 27.1973C37.2896 26.9638 37.494 26.7681 37.7354 26.6279C40.0563 25.2825 42.5464 24.2515 45.1387 23.5605C45.41 23.4881 45.6949 23.4805 45.9697 23.5381C46.2444 23.5957 46.5015 23.7174 46.7207 23.8926H46.7217L52.0645 28.1611L52.2012 28.2705H53.79L53.9268 28.1611L59.2559 23.9072C59.4752 23.7319 59.7329 23.6104 60.0078 23.5527C60.214 23.5095 60.4254 23.5031 60.6328 23.5332L60.8389 23.5752C63.431 24.2634 65.9205 25.2934 68.2412 26.6377H68.2422C68.4839 26.7776 68.6895 26.9726 68.8428 27.2061C68.9959 27.4394 69.0927 27.7052 69.125 27.9824V27.9834L69.9277 34.7998L69.9492 34.9805L70.0801 35.1045C70.3639 35.3734 70.645 35.6535 70.9219 35.9453L71.0469 36.0781L71.2285 36.0986L78.0264 36.8545V36.8555C78.3036 36.8875 78.5693 36.9838 78.8027 37.1367C79.036 37.2896 79.231 37.4942 79.3711 37.7354C80.7166 40.0564 81.7485 42.5463 82.4395 45.1387C82.5119 45.41 82.5195 45.6949 82.4619 45.9697C82.4043 46.2444 82.2826 46.5015 82.1074 46.7207L77.8311 52.0645L77.7158 52.207L77.7217 52.3906C77.7329 52.7939 77.7329 53.1973 77.7217 53.6006L77.7158 53.7842L77.8301 53.9268L82.084 59.2559L82.085 59.2568C82.2606 59.4759 82.3824 59.7331 82.4404 60.0078C82.484 60.2141 82.4908 60.4261 82.4609 60.6338L82.4189 60.8389C81.7285 63.4309 80.6977 65.9199 79.3535 68.2412V68.2422C79.2137 68.4837 79.0194 68.6895 78.7861 68.8428C78.5527 68.9961 78.2862 69.0927 78.0088 69.125H78.0078L71.1914 69.9277L71.0117 69.9492L70.8867 70.0801C70.6178 70.3639 70.3377 70.645 70.0459 70.9219L69.9131 71.0469L69.8926 71.2285L69.1357 78.0283C69.1035 78.3047 69.0079 78.5699 68.8555 78.8027C68.7408 78.9778 68.5963 79.1311 68.4297 79.2559L68.2559 79.3711C65.9356 80.7177 63.4461 81.7498 60.8535 82.4395H60.8525C60.5814 82.5118 60.2971 82.5194 60.0225 82.4619C59.8162 82.4187 59.6193 82.3394 59.4414 82.2285L59.2705 82.1074L53.9277 77.8311L53.7842 77.7158L53.6006 77.7217C53.1973 77.7329 52.7939 77.7329 52.3906 77.7217L52.208 77.7158L52.0645 77.8301L46.7354 82.084V82.085C46.5162 82.2607 46.2583 82.3824 45.9834 82.4404C45.7085 82.4984 45.4238 82.4911 45.1523 82.4189C42.5603 81.7285 40.0713 80.6977 37.75 79.3535C37.5083 79.2137 37.3018 79.0196 37.1484 78.7861C36.9951 78.5527 36.8985 78.2862 36.8662 78.0088L36.0723 71.1924L36.0518 71.0127L35.9209 70.8877L35.498 70.4746C35.3575 70.3341 35.2169 70.1912 35.0771 70.0449L34.9521 69.9131L34.7715 69.8926L27.9717 69.1357H27.9707C27.6947 69.1034 27.4298 69.0077 27.1973 68.8555C27.0222 68.7408 26.8689 68.5963 26.7441 68.4297L26.6289 68.2559C25.2835 65.9349 24.2515 63.4457 23.5605 60.8535V60.8525C23.4882 60.5814 23.4806 60.2971 23.5381 60.0225C23.5813 59.8162 23.6606 59.6193 23.7715 59.4414L23.8926 59.2705L28.1611 53.9268L28.2705 53.79V52.2012Z" stroke="#494949"/>
<path d="M31.436 70.764H58.164V44.036H31.436V70.764ZM26.86 74.924V39.876H62.74V74.924H26.86ZM33.88 50.848L38.612 47.624C39.9293 49.704 41.1427 51.8187 42.252 53.968C43.3613 56.0827 44.3667 58.232 45.268 60.416C46.6893 54.5573 48.544 48.7853 50.832 43.1C53.12 37.4147 55.7373 31.7813 58.684 26.2L62.584 28.124C59.3253 34.6067 56.4133 41.228 53.848 47.988C51.3173 54.7133 49.1853 61.5427 47.452 68.476L43.292 68.84C41.94 65.8587 40.484 62.8253 38.924 59.74C37.3987 56.6547 35.7173 53.6907 33.88 50.848Z" fill="black"/>
<path d="M-0.772727 56.0909V8.09091H7.31818V13.8636H7.79545C8.2197 13.0152 8.81818 12.1136 9.59091 11.1591C10.3636 10.1894 11.4091 9.36363 12.7273 8.68182C14.0455 7.98485 15.7273 7.63636 17.7727 7.63636C20.4697 7.63636 22.9015 8.32576 25.0682 9.70454C27.25 11.0682 28.9773 13.0909 30.25 15.7727C31.5379 18.4394 32.1818 21.7121 32.1818 25.5909C32.1818 29.4242 31.553 32.6818 30.2955 35.3636C29.0379 38.0455 27.3258 40.0909 25.1591 41.5C22.9924 42.9091 20.5379 43.6136 17.7955 43.6136C15.7955 43.6136 14.1364 43.2803 12.8182 42.6136C11.5 41.947 10.4394 41.1439 9.63636 40.2045C8.84849 39.25 8.23485 38.3485 7.79545 37.5H7.45455V56.0909H-0.772727ZM7.29545 25.5455C7.29545 27.803 7.61364 29.7803 8.25 31.4773C8.90152 33.1742 9.83333 34.5 11.0455 35.4545C12.2727 36.3939 13.7576 36.8636 15.5 36.8636C17.3182 36.8636 18.8409 36.3788 20.0682 35.4091C21.2955 34.4242 22.2197 33.0833 22.8409 31.3864C23.4773 29.6742 23.7955 27.7273 23.7955 25.5455C23.7955 23.3788 23.4848 21.4545 22.8636 19.7727C22.2424 18.0909 21.3182 16.7727 20.0909 15.8182C18.8636 14.8636 17.3333 14.3864 15.5 14.3864C13.7424 14.3864 12.25 14.8485 11.0227 15.7727C9.79546 16.697 8.86364 17.9924 8.22727 19.6591C7.60606 21.3258 7.29545 23.2879 7.29545 25.5455Z" fill="black"/>
<path d="M18.6137 63.8083L17.9708 64.1945L18.7434 65.4803L19.3863 65.094L19 64.4511L18.6137 63.8083ZM49.0009 46.4248L40.3419 46.576L44.8023 53.9992L49.0009 46.4248ZM19 64.4511L19.3863 65.094L43.6013 50.5442L43.215 49.9013L42.8287 49.2584L18.6137 63.8083L19 64.4511Z" fill="black"/>
</g>
<defs>
<linearGradient id="paint0_linear_2049_147" x1="53" y1="23" x2="53" y2="83" gradientUnits="userSpaceOnUse">
<stop/>
<stop offset="1" stop-color="white"/>
</linearGradient>
<clipPath id="clip0_2049_147">
<rect width="80" height="80" fill="white"/>
</clipPath>
</defs>
</svg>
